<svg viewBox="0 0 130 111" xmlns="http://www.w3.org/2000/svg" xmlns:xlink="http://www.w3.org/1999/xlink">
    <defs>
        <path id="a" d="M.5.831h125V73H.5z"/>
    </defs>
    <g fill="none" fill-rule="evenodd">
        <g transform="translate(2 37.841)">
            <mask id="b" fill="#fff">
                <use xlink:href="#a"/>
            </mask>
            <path d="M67.117 72.48L1.4 34.54c-1.334-.771-1.165-2.13.375-3.02l51.88-29.953c1.542-.89 3.895-.985 5.229-.216L124.6 39.291c1.334.77 1.165 2.128-.376 3.018l-51.88 29.953c-1.54.89-3.893.988-5.227.218" fill="#B4BAEA" opacity=".5" mask="url(#b)"/>
        </g>
        <path d="M127.5 65.545s-7.845-10.517-19.097-17.013c-15.572-8.99-20.204-5.677-33.167-13.16-12.962-7.485-18.591-16.723-18.591-16.723L2.5 49.91s5.63 9.238 18.593 16.722c12.963 7.483 17.594 4.171 33.167 13.161 11.252 6.496 19.096 17.013 19.096 17.013l54.144-31.26zM55.2 28.563L13.54 52.615M92.715 48.506l-39.368 22.73M97.097 50.541l-39.44 22.771M114.867 63.77L75.74 86.359" stroke="#33475C" stroke-width="5" stroke-linecap="round" stroke-linejoin="round"/>
        <path d="M38.695 64.965c-1.11.641-1.005 1.435.234 1.765 0 0 2.682.713 4.123 1.09 1.442.375 4.175 1.241 4.175 1.241 1.223.387 3.13.18 4.24-.462L86.79 48.206c1.11-.64 1.013-1.466-.214-1.833 0 0-1.651-.493-4.392-1.126-2.741-.632-3.892-1.064-3.892-1.064-1.201-.45-3.091-.294-4.201.346L38.695 64.965zM80.915 47.871L48.639 66.506M76.59 46.559l-32.458 18.74M17.921 53.967c-.809.468-.959 1.274-.334 1.793 0 0 1.352 1.121 2.08 1.717.728.595 2.07 1.877 2.07 1.877.6.572 1.751.658 2.56.19L63.56 36.37c.808-.467.972-1.303.364-1.858 0 0-.817-.744-2.225-1.794-1.408-1.049-1.955-1.656-1.955-1.656-.57-.633-1.698-.768-2.507-.3L17.921 53.967zM60.272 35.135L23.226 57.027M58.136 33.165L20.957 55.133M103.172 54.508l-39.109 22.58M99.902 52.915L61.079 75.33M107.198 56.757l-39.44 22.771M112.496 61.501l-39.108 22.58M110.001 59.131L71.18 81.545M66.018 38.887L26.58 61.658M72.87 42.076l-39.108 22.58M69.6 40.485L30.777 62.899" stroke="#33475C" stroke-width="5" stroke-linecap="round" stroke-linejoin="round"/>
        <path d="M127.5 49.396s-7.845-10.517-19.097-17.013c-15.572-8.99-20.204-5.677-33.167-13.161C62.274 11.738 56.645 2.5 56.645 2.5L2.5 33.76s5.63 9.238 18.593 16.722c12.963 7.483 17.594 4.17 33.167 13.162 11.252 6.496 19.096 17.012 19.096 17.012l54.144-31.26zM55.2 12.413L13.54 36.465M92.715 32.357L53.347 55.086M97.097 34.392l-39.44 22.77M114.867 47.62L75.74 70.21" stroke="#33475C" stroke-width="5" stroke-linecap="round" stroke-linejoin="round"/>
        <path d="M38.695 48.816c-1.11.64-1.005 1.435.234 1.765 0 0 2.682.713 4.123 1.089 1.442.376 4.175 1.242 4.175 1.242 1.223.387 3.13.179 4.24-.462L86.79 32.057c1.11-.64 1.013-1.466-.214-1.833 0 0-1.651-.493-4.392-1.126-2.741-.632-3.892-1.064-3.892-1.064-1.201-.45-3.091-.294-4.201.346L38.695 48.816zM80.915 31.722L48.639 50.357M76.59 30.41L44.132 49.15M17.921 37.818c-.809.468-.959 1.274-.334 1.793 0 0 1.352 1.12 2.08 1.717.728.595 2.07 1.877 2.07 1.877.6.572 1.751.658 2.56.19L63.56 20.22c.808-.467.972-1.303.364-1.858 0 0-.817-.743-2.225-1.793-1.408-1.05-1.955-1.657-1.955-1.657-.57-.633-1.698-.768-2.507-.3L17.921 37.819zM60.272 18.986L23.226 40.878M58.136 17.016L20.957 38.984M103.172 38.359l-39.109 22.58M99.902 36.766L61.079 59.18M107.198 40.608l-39.44 22.77M112.496 45.352L73.388 67.93M110.001 42.982L71.18 65.397M66.018 22.738L26.58 45.508M72.87 25.927l-39.108 22.58M69.6 24.335L30.777 46.75M65 35.024v13.863" stroke="#33475C" stroke-width="5" stroke-linecap="round" stroke-linejoin="round"/>
        <path d="M127.5 65.545s-7.845-10.517-19.097-17.013c-15.572-8.99-20.204-5.677-33.167-13.16-12.962-7.485-18.591-16.723-18.591-16.723L2.5 49.91s5.63 9.238 18.593 16.722c12.963 7.483 17.594 4.171 33.167 13.161 11.252 6.496 19.096 17.013 19.096 17.013l54.144-31.26zM55.2 28.563L13.54 52.615M92.715 48.506l-39.368 22.73M97.097 50.541l-39.44 22.771M114.867 63.77L75.74 86.359" stroke="#33475C" stroke-width="5" stroke-linecap="round" stroke-linejoin="round"/>
        <path d="M38.695 64.965c-1.11.641-1.005 1.435.234 1.765 0 0 2.682.713 4.123 1.09 1.442.375 4.175 1.241 4.175 1.241 1.223.387 3.13.18 4.24-.462L86.79 48.206c1.11-.64 1.013-1.466-.214-1.833 0 0-1.651-.493-4.392-1.126-2.741-.632-3.892-1.064-3.892-1.064-1.201-.45-3.091-.294-4.201.346L38.695 64.965zM80.915 47.871L48.639 66.506M76.59 46.559l-32.458 18.74M17.921 53.967c-.809.468-.959 1.274-.334 1.793 0 0 1.352 1.121 2.08 1.717.728.595 2.07 1.877 2.07 1.877.6.572 1.751.658 2.56.19L63.56 36.37c.808-.467.972-1.303.364-1.858 0 0-.817-.744-2.225-1.794-1.408-1.049-1.955-1.656-1.955-1.656-.57-.633-1.698-.768-2.507-.3L17.921 53.967zM60.272 35.135L23.226 57.027M58.136 33.165L20.957 55.133M103.172 54.508l-39.109 22.58M99.902 52.915L61.079 75.33M107.198 56.757l-39.44 22.771M112.496 61.501l-39.108 22.58M110.001 59.131L71.18 81.545M66.018 38.887L26.58 61.658M72.87 42.076l-39.108 22.58M69.6 40.485L30.777 62.899" stroke="#33475C" stroke-width="5" stroke-linecap="round" stroke-linejoin="round"/>
        <path d="M127.5 49.396s-7.845-10.517-19.097-17.013c-15.572-8.99-20.204-5.677-33.167-13.161C62.274 11.738 56.645 2.5 56.645 2.5L2.5 33.76s5.63 9.238 18.593 16.722c12.963 7.483 17.594 4.17 33.167 13.162 11.252 6.496 19.096 17.012 19.096 17.012l54.144-31.26zM55.2 12.413L13.54 36.465M92.715 32.357L53.347 55.086M97.097 34.392l-39.44 22.77M114.867 47.62L75.74 70.21" stroke="#33475C" stroke-width="5" stroke-linecap="round" stroke-linejoin="round"/>
        <path d="M38.695 48.816c-1.11.64-1.005 1.435.234 1.765 0 0 2.682.713 4.123 1.089 1.442.376 4.175 1.242 4.175 1.242 1.223.387 3.13.179 4.24-.462L86.79 32.057c1.11-.64 1.013-1.466-.214-1.833 0 0-1.651-.493-4.392-1.126-2.741-.632-3.892-1.064-3.892-1.064-1.201-.45-3.091-.294-4.201.346L38.695 48.816zM80.915 31.722L48.639 50.357M76.59 30.41L44.132 49.15M17.921 37.818c-.809.468-.959 1.274-.334 1.793 0 0 1.352 1.12 2.08 1.717.728.595 2.07 1.877 2.07 1.877.6.572 1.751.658 2.56.19L63.56 20.22c.808-.467.972-1.303.364-1.858 0 0-.817-.743-2.225-1.793-1.408-1.05-1.955-1.657-1.955-1.657-.57-.633-1.698-.768-2.507-.3L17.921 37.819zM60.272 18.986L23.226 40.878M58.136 17.016L20.957 38.984M103.172 38.359l-39.109 22.58M99.902 36.766L61.079 59.18M107.198 40.608l-39.44 22.77M112.496 45.352L73.388 67.93M110.001 42.982L71.18 65.397M66.018 22.738L26.58 45.508M72.87 25.927l-39.108 22.58M69.6 24.335L30.777 46.75" stroke="#33475C" stroke-width="5" stroke-linecap="round" stroke-linejoin="round"/>
        <path d="M127.5 65.545s-7.845-10.517-19.097-17.013c-15.572-8.99-20.204-5.677-33.167-13.16-12.962-7.485-18.591-16.723-18.591-16.723L2.5 49.91s5.63 9.238 18.593 16.722c12.963 7.483 17.594 4.171 33.167 13.161 11.252 6.496 19.096 17.013 19.096 17.013l54.144-31.26z" fill="#FFF"/>
        <path d="M127.5 65.545s-7.845-10.517-19.097-17.013c-15.572-8.99-20.204-5.677-33.167-13.16-12.962-7.485-18.591-16.723-18.591-16.723L2.5 49.91s5.63 9.238 18.593 16.722c12.963 7.483 17.594 4.171 33.167 13.161 11.252 6.496 19.096 17.013 19.096 17.013l54.144-31.26z" stroke="#33475C" stroke-linecap="round" stroke-linejoin="round"/>
        <path d="M55.2 28.563L13.54 52.615" fill="#FFF"/>
        <path d="M55.2 28.563L13.54 52.615" stroke="#D9DCF4" stroke-width="2" stroke-linecap="round" stroke-linejoin="round"/>
        <path d="M92.715 48.506l-39.368 22.73" stroke="#ECEDF9" stroke-linecap="round" stroke-linejoin="round"/>
        <path d="M97.097 50.541l-39.44 22.771" fill="#FFF"/>
        <path d="M97.097 50.541l-39.44 22.771" stroke="#D9DCF4" stroke-width="2" stroke-linecap="round" stroke-linejoin="round"/>
        <path d="M114.867 63.77L75.74 86.359" stroke="#ECEDF9" stroke-linecap="round" stroke-linejoin="round"/>
        <path d="M38.695 64.965c-1.11.641-1.005 1.435.234 1.765 0 0 2.682.713 4.123 1.09 1.442.375 4.175 1.241 4.175 1.241 1.223.387 3.13.18 4.24-.462L86.79 48.206c1.11-.64 1.013-1.466-.214-1.833 0 0-1.651-.493-4.392-1.126-2.741-.632-3.892-1.064-3.892-1.064-1.201-.45-3.091-.294-4.201.346L38.695 64.965z" fill="#ECEDF9"/>
        <path d="M80.915 47.871L48.639 66.506M76.59 46.559l-32.458 18.74" stroke="#B4BAEA" stroke-linecap="round" stroke-linejoin="round"/>
        <path d="M17.921 53.967c-.809.468-.959 1.274-.334 1.793 0 0 1.352 1.121 2.08 1.717.728.595 2.07 1.877 2.07 1.877.6.572 1.751.658 2.56.19L63.56 36.37c.808-.467.972-1.303.364-1.858 0 0-.817-.744-2.225-1.794-1.408-1.049-1.955-1.656-1.955-1.656-.57-.633-1.698-.768-2.507-.3L17.921 53.967z" fill="#ECEDF9"/>
        <path d="M60.272 35.135L23.226 57.027M58.136 33.165L20.957 55.133" stroke="#B4BAEA" stroke-linecap="round" stroke-linejoin="round"/>
        <path d="M103.172 54.508l-39.109 22.58M99.902 52.915L61.079 75.33" stroke="#ECEDF9" stroke-linecap="round" stroke-linejoin="round"/>
        <path d="M107.198 56.757l-39.44 22.771" fill="#FFF"/>
        <path d="M107.198 56.757l-39.44 22.771" stroke="#D9DCF4" stroke-width="2" stroke-linecap="round" stroke-linejoin="round"/>
        <path d="M112.496 61.501l-39.108 22.58M110.001 59.131L71.18 81.545" stroke="#ECEDF9" stroke-linecap="round" stroke-linejoin="round"/>
        <path d="M66.018 38.887L26.58 61.658" fill="#FFF"/>
        <path d="M66.018 38.887L26.58 61.658" stroke="#D9DCF4" stroke-width="2" stroke-linecap="round" stroke-linejoin="round"/>
        <path d="M72.87 42.076l-39.108 22.58M69.6 40.485L30.777 62.899" stroke="#ECEDF9" stroke-linecap="round" stroke-linejoin="round"/>
        <path d="M127.5 49.396s-7.845-10.517-19.097-17.013c-15.572-8.99-20.204-5.677-33.167-13.161C62.274 11.738 56.645 2.5 56.645 2.5L2.5 33.76s5.63 9.238 18.593 16.722c12.963 7.483 17.594 4.17 33.167 13.162 11.252 6.496 19.096 17.012 19.096 17.012l54.144-31.26z" fill="#FFF"/>
        <path d="M127.5 49.396s-7.845-10.517-19.097-17.013c-15.572-8.99-20.204-5.677-33.167-13.161C62.274 11.738 56.645 2.5 56.645 2.5L2.5 33.76s5.63 9.238 18.593 16.722c12.963 7.483 17.594 4.17 33.167 13.162 11.252 6.496 19.096 17.012 19.096 17.012l54.144-31.26z" stroke="#33475C" stroke-linecap="round" stroke-linejoin="round"/>
        <path d="M55.2 12.413L13.54 36.465" fill="#FFF"/>
        <path d="M55.2 12.413L13.54 36.465" stroke="#D9DCF4" stroke-width="2" stroke-linecap="round" stroke-linejoin="round"/>
        <path d="M92.715 32.357L53.347 55.086" stroke="#ECEDF9" stroke-linecap="round" stroke-linejoin="round"/>
        <path d="M97.097 34.392l-39.44 22.77" fill="#FFF"/>
        <path d="M97.097 34.392l-39.44 22.77" stroke="#D9DCF4" stroke-width="2" stroke-linecap="round" stroke-linejoin="round"/>
        <path d="M114.867 47.62L75.74 70.21" stroke="#ECEDF9" stroke-linecap="round" stroke-linejoin="round"/>
        <path d="M38.695 48.816c-1.11.64-1.005 1.435.234 1.765 0 0 2.682.713 4.123 1.089 1.442.376 4.175 1.242 4.175 1.242 1.223.387 3.13.179 4.24-.462L86.79 32.057c1.11-.64 1.013-1.466-.214-1.833 0 0-1.651-.493-4.392-1.126-2.741-.632-3.892-1.064-3.892-1.064-1.201-.45-3.091-.294-4.201.346L38.695 48.816z" fill="#ECEDF9"/>
        <path d="M80.915 31.722L48.639 50.357M76.59 30.41L44.132 49.15" stroke="#B4BAEA" stroke-linecap="round" stroke-linejoin="round"/>
        <path d="M17.921 37.818c-.809.468-.959 1.274-.334 1.793 0 0 1.352 1.12 2.08 1.717.728.595 2.07 1.877 2.07 1.877.6.572 1.751.658 2.56.19L63.56 20.22c.808-.467.972-1.303.364-1.858 0 0-.817-.743-2.225-1.793-1.408-1.05-1.955-1.657-1.955-1.657-.57-.633-1.698-.768-2.507-.3L17.921 37.819z" fill="#ECEDF9"/>
        <path d="M60.272 18.986L23.226 40.878M58.136 17.016L20.957 38.984" stroke="#B4BAEA" stroke-linecap="round" stroke-linejoin="round"/>
        <path d="M103.172 38.359l-39.109 22.58M99.902 36.766L61.079 59.18" stroke="#ECEDF9" stroke-linecap="round" stroke-linejoin="round"/>
        <path d="M107.198 40.608l-39.44 22.77" fill="#FFF"/>
        <path d="M107.198 40.608l-39.44 22.77" stroke="#D9DCF4" stroke-width="2" stroke-linecap="round" stroke-linejoin="round"/>
        <path d="M112.496 45.352L73.388 67.93M110.001 42.982L71.18 65.397" stroke="#ECEDF9" stroke-linecap="round" stroke-linejoin="round"/>
        <path d="M66.018 22.738L26.58 45.508" fill="#FFF"/>
        <path d="M66.018 22.738L26.58 45.508" stroke="#D9DCF4" stroke-width="2" stroke-linecap="round" stroke-linejoin="round"/>
        <path d="M72.87 25.927l-39.108 22.58M69.6 24.335L30.777 46.75" stroke="#ECEDF9" stroke-linecap="round" stroke-linejoin="round"/>
        <path d="M65 35.024v13.863" stroke="#33475C" stroke-linecap="round" stroke-linejoin="round" stroke-dasharray="2,2,0,0"/>
        <path d="M127.5 65.545s-7.845-10.517-19.097-17.013c-15.572-8.99-20.204-5.677-33.167-13.16-12.962-7.485-18.591-16.723-18.591-16.723L2.5 49.91s5.63 9.238 18.593 16.722c12.963 7.483 17.594 4.171 33.167 13.161 11.252 6.496 19.096 17.013 19.096 17.013l54.144-31.26z" fill="#FFF"/>
        <path d="M127.5 65.545s-7.845-10.517-19.097-17.013c-15.572-8.99-20.204-5.677-33.167-13.16-12.962-7.485-18.591-16.723-18.591-16.723L2.5 49.91s5.63 9.238 18.593 16.722c12.963 7.483 17.594 4.171 33.167 13.161 11.252 6.496 19.096 17.013 19.096 17.013l54.144-31.26z" stroke="#33475C" stroke-linecap="round" stroke-linejoin="round"/>
        <path d="M55.2 28.563L13.54 52.615" fill="#FFF"/>
        <path d="M55.2 28.563L13.54 52.615" stroke="#D9DCF4" stroke-width="2" stroke-linecap="round" stroke-linejoin="round"/>
        <path d="M92.715 48.506l-39.368 22.73" stroke="#ECEDF9" stroke-linecap="round" stroke-linejoin="round"/>
        <path d="M97.097 50.541l-39.44 22.771" fill="#FFF"/>
        <path d="M97.097 50.541l-39.44 22.771" stroke="#D9DCF4" stroke-width="2" stroke-linecap="round" stroke-linejoin="round"/>
        <path d="M114.867 63.77L75.74 86.359" stroke="#ECEDF9" stroke-linecap="round" stroke-linejoin="round"/>
        <path d="M38.695 64.965c-1.11.641-1.005 1.435.234 1.765 0 0 2.682.713 4.123 1.09 1.442.375 4.175 1.241 4.175 1.241 1.223.387 3.13.18 4.24-.462L86.79 48.206c1.11-.64 1.013-1.466-.214-1.833 0 0-1.651-.493-4.392-1.126-2.741-.632-3.892-1.064-3.892-1.064-1.201-.45-3.091-.294-4.201.346L38.695 64.965z" fill="#ECEDF9"/>
        <path d="M80.915 47.871L48.639 66.506M76.59 46.559l-32.458 18.74" stroke="#B4BAEA" stroke-linecap="round" stroke-linejoin="round"/>
        <path d="M17.921 53.967c-.809.468-.959 1.274-.334 1.793 0 0 1.352 1.121 2.08 1.717.728.595 2.07 1.877 2.07 1.877.6.572 1.751.658 2.56.19L63.56 36.37c.808-.467.972-1.303.364-1.858 0 0-.817-.744-2.225-1.794-1.408-1.049-1.955-1.656-1.955-1.656-.57-.633-1.698-.768-2.507-.3L17.921 53.967z" fill="#ECEDF9"/>
        <path d="M60.272 35.135L23.226 57.027M58.136 33.165L20.957 55.133" stroke="#B4BAEA" stroke-linecap="round" stroke-linejoin="round"/>
        <path d="M103.172 54.508l-39.109 22.58M99.902 52.915L61.079 75.33" stroke="#ECEDF9" stroke-linecap="round" stroke-linejoin="round"/>
        <path d="M107.198 56.757l-39.44 22.771" fill="#FFF"/>
        <path d="M107.198 56.757l-39.44 22.771" stroke="#D9DCF4" stroke-width="2" stroke-linecap="round" stroke-linejoin="round"/>
        <path d="M112.496 61.501l-39.108 22.58M110.001 59.131L71.18 81.545" stroke="#ECEDF9" stroke-linecap="round" stroke-linejoin="round"/>
        <path d="M66.018 38.887L26.58 61.658" fill="#FFF"/>
        <path d="M66.018 38.887L26.58 61.658" stroke="#D9DCF4" stroke-width="2" stroke-linecap="round" stroke-linejoin="round"/>
        <path d="M72.87 42.076l-39.108 22.58M69.6 40.485L30.777 62.899" stroke="#ECEDF9" stroke-linecap="round" stroke-linejoin="round"/>
        <path d="M127.5 49.396s-7.845-10.517-19.097-17.013c-15.572-8.99-20.204-5.677-33.167-13.161C62.274 11.738 56.645 2.5 56.645 2.5L2.5 33.76s5.63 9.238 18.593 16.722c12.963 7.483 17.594 4.17 33.167 13.162 11.252 6.496 19.096 17.012 19.096 17.012l54.144-31.26z" fill="#FFF"/>
        <path d="M127.5 49.396s-7.845-10.517-19.097-17.013c-15.572-8.99-20.204-5.677-33.167-13.161C62.274 11.738 56.645 2.5 56.645 2.5L2.5 33.76s5.63 9.238 18.593 16.722c12.963 7.483 17.594 4.17 33.167 13.162 11.252 6.496 19.096 17.012 19.096 17.012l54.144-31.26z" stroke="#33475C" stroke-linecap="round" stroke-linejoin="round"/>
        <path d="M55.2 12.413L13.54 36.465" fill="#FFF"/>
        <path d="M55.2 12.413L13.54 36.465" stroke="#D9DCF4" stroke-width="2" stroke-linecap="round" stroke-linejoin="round"/>
        <path d="M92.715 32.357L53.347 55.086" stroke="#ECEDF9" stroke-linecap="round" stroke-linejoin="round"/>
        <path d="M97.097 34.392l-39.44 22.77" fill="#FFF"/>
        <path d="M97.097 34.392l-39.44 22.77" stroke="#D9DCF4" stroke-width="2" stroke-linecap="round" stroke-linejoin="round"/>
        <path d="M114.867 47.62L75.74 70.21" stroke="#ECEDF9" stroke-linecap="round" stroke-linejoin="round"/>
        <path d="M38.695 48.816c-1.11.64-1.005 1.435.234 1.765 0 0 2.682.713 4.123 1.089 1.442.376 4.175 1.242 4.175 1.242 1.223.387 3.13.179 4.24-.462L86.79 32.057c1.11-.64 1.013-1.466-.214-1.833 0 0-1.651-.493-4.392-1.126-2.741-.632-3.892-1.064-3.892-1.064-1.201-.45-3.091-.294-4.201.346L38.695 48.816z" fill="#ECEDF9"/>
        <path d="M80.915 31.722L48.639 50.357M76.59 30.41L44.132 49.15" stroke="#B4BAEA" stroke-linecap="round" stroke-linejoin="round"/>
        <path d="M17.921 37.818c-.809.468-.959 1.274-.334 1.793 0 0 1.352 1.12 2.08 1.717.728.595 2.07 1.877 2.07 1.877.6.572 1.751.658 2.56.19L63.56 20.22c.808-.467.972-1.303.364-1.858 0 0-.817-.743-2.225-1.793-1.408-1.05-1.955-1.657-1.955-1.657-.57-.633-1.698-.768-2.507-.3L17.921 37.819z" fill="#ECEDF9"/>
        <path d="M60.272 18.986L23.226 40.878M58.136 17.016L20.957 38.984" stroke="#B4BAEA" stroke-linecap="round" stroke-linejoin="round"/>
        <path d="M103.172 38.359l-39.109 22.58M99.902 36.766L61.079 59.18" stroke="#ECEDF9" stroke-linecap="round" stroke-linejoin="round"/>
        <g>
            <path d="M107.198 40.608l-39.44 22.77" fill="#FFF"/>
            <path d="M107.198 40.608l-39.44 22.77" stroke="#D9DCF4" stroke-width="2" stroke-linecap="round" stroke-linejoin="round"/>
        </g>
        <path d="M112.496 45.352L73.388 67.93M110.001 42.982L71.18 65.397" stroke="#ECEDF9" stroke-linecap="round" stroke-linejoin="round"/>
        <g>
            <path d="M66.018 22.738L26.58 45.508" fill="#FFF"/>
            <path d="M66.018 22.738L26.58 45.508" stroke="#D9DCF4" stroke-width="2" stroke-linecap="round" stroke-linejoin="round"/>
        </g>
        <path d="M72.87 25.927l-39.108 22.58M69.6 24.335L30.777 46.75" stroke="#ECEDF9" stroke-linecap="round" stroke-linejoin="round"/>
    </g>
</svg>
